<svg id="Layer_1" data-name="Layer 1" xmlns="http://www.w3.org/2000/svg" viewBox="0 0 1080 1920"><defs><style>.cls-1{fill:#00334e;}.cls-2{fill:#fff;}</style></defs><title>splash-landscape_tabcorp</title><rect class="cls-1" x="-420" y="420" width="1920" height="1080" transform="translate(1500 420) rotate(90)"/><polygon class="cls-2" points="145.11 895.67 97.06 895.67 97.06 871.03 228.29 871.03 228.29 895.67 180.23 895.67 180.23 1000.45 145.11 1000.45 145.11 895.67"/><path class="cls-2" d="M218.84,933c3.83-29.9,31.36-33.34,57.46-33.34,45.7,0,55.47,14.87,55.47,33v48.22c0,8.51,1.46,14.67,3.61,19.58H303.5a41.85,41.85,0,0,1-2.18-10.33c-10.86,10.87-31.17,14-45.49,14-25.38,0-43.13-8.88-43.13-31.53,0-23.58,20.84-28.65,40.23-29.92l33.88-2.35c9.79-.73,13.05-2.35,13.05-10.16s-6.53-11.6-25-11.6c-13.58,0-20.65,1.09-25.2,14.5ZM301,953.15c-6,2.9-12.49,3.62-18.85,4.16l-18.47,1.64c-11.26.91-16.87,4-16.87,12.69s8.17,13.58,20.11,13.58c16.15,0,34.07-7.79,34.07-24.1Z"/><path class="cls-2" d="M350,868.86h31.9v46.39h.37c6.17-8.7,19.38-14.48,37.34-14.48,30.61,0,54.19,20.67,54.19,52.2,0,34.07-24.83,51.11-56.38,51.11-13.42,0-24.09-2.73-36.26-15.76h-.36v12.13H350ZM410.7,980.51c16.13,0,30.08-9.6,30.08-28.1s-13.95-28.09-30.08-28.09c-16,0-29.92,9.6-29.92,28.09S394.74,980.51,410.7,980.51Z"/><path class="cls-2" d="M573.39,939.18c-3.81-12.86-13.6-17-26.45-17-19.79,0-31.18,10.69-31.18,29.74s11.39,29.71,31.18,29.71c14.12,0,24.8-7.62,26.45-19.76h33c-5.83,34.45-30.45,42.25-62.19,42.25-36.6,0-61.44-15.6-61.44-52.19s25.74-52.21,64.19-52.21c24.64,0,53.43,7.42,59.44,39.5Z"/><path class="cls-2" d="M680.16,899.68c38.42,0,64.16,15.57,64.16,52.21s-25.75,52.19-64.16,52.19S616,988.48,616,951.89,641.72,899.68,680.16,899.68Zm0,81.92c19.74,0,31.17-10.68,31.17-29.71s-11.43-29.74-31.17-29.74S649,932.84,649,951.89,660.4,981.6,680.16,981.6Z"/><path class="cls-2" d="M756.73,903.3h30.81v19h.35c11.6-14.87,20.68-21.57,38.78-21.57a63.5,63.5,0,0,1,11.65.9v29.91a64.45,64.45,0,0,0-17.61-2.92c-21.73,0-32.09,11.07-32.09,29.92v41.87H756.73Z"/><path class="cls-2" d="M849,903.3h30.82v13.23h.35c12.13-13,22.83-15.76,36.27-15.76,31.54,0,56.35,17,56.35,51.12,0,31.53-23.56,52.19-54.18,52.19-18,0-31.18-5.82-37.36-14.5h-.37v46.94H849Zm60.71,77.21c16.14,0,30.11-9.6,30.11-28.1s-14-28.09-30.11-28.09c-16,0-29.89,9.6-29.89,28.09S893.73,980.51,909.69,980.51Z"/></svg>