<svg id="Layer_1" data-name="Layer 1" xmlns="http://www.w3.org/2000/svg" viewBox="0 0 1920 1080"><defs><style>.cls-1{fill:#00334e;}.cls-2{fill:#fff;}</style></defs><title>splash-landscape_tabcorp</title><rect class="cls-1" width="1920" height="1080"/><polygon class="cls-2" points="371.11 453.86 298.53 453.86 298.53 416.63 496.77 416.63 496.77 453.86 424.18 453.86 424.18 612.16 371.11 612.16 371.11 453.86"/><path class="cls-2" d="M482.5,510.28c5.78-45.17,47.38-50.36,86.81-50.36,69,0,83.8,22.46,83.8,49.83v72.84c0,12.86,2.2,22.16,5.46,29.57H610.41a63.23,63.23,0,0,1-3.29-15.61C590.7,613,560,617.64,538.4,617.64c-38.34,0-65.16-13.41-65.16-47.64,0-35.62,31.48-43.28,60.78-45.2l51.19-3.55c14.78-1.11,19.72-3.56,19.72-15.35s-9.86-17.53-37.8-17.53c-20.51,0-31.2,1.65-38.07,21.9Zm124,30.42c-9,4.38-18.88,5.47-28.47,6.29l-27.91,2.47c-17,1.37-25.48,6-25.48,19.17s12.34,20.52,30.38,20.52c24.4,0,51.48-11.76,51.48-36.4Z"/><path class="cls-2" d="M680.59,413.36h48.19v70.08h.56c9.31-13.14,29.28-21.88,56.42-21.88,46.24,0,81.86,31.23,81.86,78.86,0,51.48-37.51,77.22-85.17,77.22-20.27,0-36.4-4.12-54.78-23.81h-.54v18.33H680.59ZM772.35,582c24.37,0,45.44-14.5,45.44-42.44s-21.07-42.44-45.44-42.44c-24.11,0-45.21,14.51-45.21,42.44S748.24,582,772.35,582Z"/><path class="cls-2" d="M1018.13,519.59c-5.76-19.42-20.54-25.73-40-25.73-29.9,0-47.1,16.16-47.1,44.93s17.2,44.88,47.1,44.88c21.32,0,37.47-11.51,40-29.85H1068c-8.8,52-46,63.82-94,63.82-55.29,0-92.81-23.56-92.81-78.85s38.89-78.87,97-78.87c37.22,0,80.72,11.21,89.8,59.67Z"/><path class="cls-2" d="M1179.43,459.92c58,0,96.93,23.52,96.93,78.87s-38.9,78.85-96.93,78.85-96.94-23.56-96.94-78.85S1121.36,459.92,1179.43,459.92Zm0,123.75c29.83,0,47.09-16.14,47.09-44.88s-17.27-44.93-47.09-44.93-47.12,16.16-47.12,44.93S1149.57,583.67,1179.43,583.67Z"/><path class="cls-2" d="M1295.1,465.38h46.55v28.76h.53c17.53-22.46,31.24-32.58,58.59-32.58a95.93,95.93,0,0,1,17.6,1.36v45.19c-8.79-2.5-17.6-4.41-26.6-4.41-32.83,0-48.48,16.72-48.48,45.2v63.26H1295.1Z"/><path class="cls-2" d="M1434.46,465.38H1481v20h.53c18.33-19.71,34.49-23.81,54.8-23.81,47.65,0,85.13,25.73,85.13,77.23,0,47.63-35.6,78.85-81.85,78.85-27.13,0-47.1-8.79-56.43-21.91h-.56v70.92h-48.16ZM1526.17,582c24.39,0,45.48-14.5,45.48-42.44s-21.09-42.44-45.48-42.44c-24.11,0-45.16,14.51-45.16,42.44S1502.07,582,1526.17,582Z"/></svg>